<svg xmlns="http://www.w3.org/2000/svg" viewBox="0 0 900 900" role="img" aria-label="Samurai pattern">
  <rect width="900" height="900" fill="#080a0d" />

  <g fill="none" stroke="#6e7680" stroke-width="10" stroke-linecap="round" stroke-linejoin="round" opacity="0.52">
    <path d="M200 350c32-150 140-233 250-233s218 83 250 233" />
    <path d="M244 350c0-35 18-63 54-63h304c36 0 54 28 54 63" />
    <path d="M314 293v-88m272 0v88" />
    <path d="M287 364c-26 54-40 114-40 181v70h406v-70c0-67-14-127-40-181" />
    <path d="M320 402h260" />
    <path d="M287 492h326" />
    <path d="M318 613c24 71 76 116 132 116s108-45 132-116" />
    <path d="M355 613c8 35 28 58 65 58s57-23 65-58" />
    <path d="M450 430v169" />
    <path d="M376 474l74 63 74-63" />
    <path d="M219 635l89-58m-89-23l89 57" />
    <path d="M681 635l-89-58m89-23l-89 57" />
  </g>

  <g fill="none" stroke="#b1261d" stroke-width="7" stroke-linecap="round" opacity="0.55">
    <path d="M450 125v75" />
    <path d="M370 182l80-52 80 52" />
    <path d="M326 535h248" />
    <path d="M366 574h168" />
  </g>
</svg>